PathFileType	4	(X/Y/Z)	D:\TRACE\v60_Jaco2_6-2-23\JustBodyDRS_Motion3_1-platform.trc
DataRate	CameraRate	NumFrames	NumMarkers	Units	OrigDataRate	OrigDataStartFrame	OrigNumFrames
100.00	100.00	      24	5	mm	100.00	3501	      7000
Frame#	Time	Left_Front			Right_Front			Left_Aft			Right_Aft			Post			
		X1	Y1	Z1	X2	Y2	Z2	X3	Y3	Z3	X4	Y4	Z4	X5	Y5	Z5	

3501	35.000	-749.44617	28.37185	-645.59985	821.12323	26.87629	-622.79486	-680.77197	-2.27710	488.09131	733.54242	-6.53192	593.55774	45.92290	1334.54175	-921.74182	
3502	35.010	-749.49762	28.29006	-645.64856	821.07001	26.71357	-622.83160	-680.79071	-2.25249	488.08951	733.51947	-6.46183	593.50934	46.03344	1334.24573	-922.34589	
3503	35.020	-749.49231	28.19637	-645.57947	821.00342	26.47647	-622.91193	-680.78278	-2.19575	488.07285	733.49200	-6.42841	593.46851	45.75284	1334.02710	-922.76941	
3504	35.030	-749.44427	28.07012	-645.50043	820.99603	26.43254	-622.93048	-680.80933	-2.16371	488.07047	733.47504	-6.39232	593.45374	45.70939	1333.82007	-923.21082	
3505	35.040	-749.70392	27.75137	-645.72992	821.02502	26.21090	-622.96991	-680.87933	-2.03294	487.98682	733.38397	-6.19511	593.46167	45.50639	1333.59180	-923.30981	
3506	35.050	-749.84698	27.28587	-645.81256	821.09009	25.88021	-623.00726	-680.87079	-1.92813	487.86032	733.33398	-6.01125	593.41974	45.37395	1333.39014	-923.67285	
3507	35.060	-749.89929	27.18391	-645.83838	821.03131	25.79688	-623.08002	-680.90253	-1.80266	487.81973	733.26892	-5.89821	593.36035	45.37049	1333.11035	-923.98743	
3508	35.070	-749.88361	27.13965	-645.86029	820.95935	25.68688	-623.14130	-681.00293	-1.58738	487.71640	733.22601	-5.78168	593.32574	45.49043	1332.86499	-924.15900	
3509	35.080	-749.87714	27.07641	-645.84265	820.89355	25.48219	-623.15881	-681.16656	-1.37215	487.66119	733.24567	-5.59193	593.30457	45.44872	1332.73059	-924.36444	
3510	35.090	-749.93457	27.03347	-645.88745	820.87811	25.29712	-623.18805	-681.26617	-1.21228	487.56232	733.23016	-5.45971	593.25018	45.38643	1332.60168	-924.73895	
3511	35.100	-749.99408	26.89802	-645.99335	820.88708	25.25819	-623.20831	-681.28351	-1.09406	487.50824	733.16901	-5.31670	593.14014	45.33128	1332.44348	-924.99127	
3512	35.110	-750.04694	26.77409	-645.98596	820.85052	25.19900	-623.28070	-681.40149	-0.80192	487.38028	733.02124	-5.34665	592.98657	45.24273	1332.34656	-925.28198	
3513	35.120	-749.99091	26.70107	-645.98370	820.81714	25.06022	-623.29327	-681.51855	-0.70405	487.35712	733.07458	-5.20139	592.90948	45.37881	1332.09937	-925.72241	
3514	35.130	-749.98041	26.72908	-645.94427	820.80298	24.97737	-623.25323	-681.53363	-0.60627	487.40955	732.94794	-5.35309	593.01166	45.27285	1331.93127	-926.27301	
3515	35.140	-749.98877	26.72420	-645.94275	820.82776	24.95611	-623.25885	-681.52222	-0.54854	487.43387	732.97406	-5.28485	592.98206	45.25534	1331.79700	-926.52649	
3516	35.150	-750.01465	26.67000	-645.99756	820.80798	24.99858	-623.19092	-681.52582	-0.50551	487.34860	733.00000	-5.12108	592.96094	45.19669	1331.78931	-926.64807	
3517	35.160	-750.05914	26.56621	-645.96954	820.73132	24.90441	-623.25293	-681.58923	-0.42556	487.33621	732.97156	-5.01240	592.87616	45.17429	1331.60278	-926.73242	
3518	35.170	-750.07629	26.53081	-646.00928	820.70081	24.72659	-623.35071	-681.68353	-0.41535	487.30212	732.85718	-5.06885	592.87445	45.00886	1331.46594	-926.45123	
3519	35.180	-750.09082	26.49121	-646.02240	820.80878	24.71194	-623.15881	-681.44507	-0.83260	487.71259	732.74677	-5.13830	592.83398	45.12755	1331.32068	-926.29340	
3520	35.190	-750.09998	26.47775	-646.01917	820.75360	24.64008	-623.21442	-681.52155	-0.64471	487.50708	732.80811	-5.01418	592.79272	45.18493	1331.22949	-926.22034	
3521	35.200	-750.14563	26.38340	-646.03766	820.55420	24.42274	-623.48853	-681.53918	-0.54454	487.39664	732.85278	-4.90118	592.73560	45.18232	1331.21057	-926.16937	
3522	35.210	-750.21118	26.30748	-646.13446	820.58594	24.36971	-623.50159	-681.53992	-0.51372	487.36969	732.89923	-4.75325	592.75610	45.06423	1331.19373	-926.22247	
3523	35.220	-750.26825	26.23548	-646.21393	820.51282	24.28147	-623.54370	-681.53723	-0.47634	487.32669	732.83630	-4.71736	592.70746	45.11498	1331.13696	-926.63898	
3524	35.230	-750.25061	26.17908	-646.30969	820.43280	24.22022	-623.55963	-681.57147	-0.46142	487.29449	732.79816	-4.70300	592.70599	45.11216	1331.04846	-927.09320	
